M48
;Layer_Color=9474304
;FILE_FORMAT=2:5
INCH,LZ
;TYPE=PLATED
T1F00S00C0.00787
%
T01
X0122047Y0003937
X0129921
X0137795
X0145669
Y0011811
Y0019685
Y0027559
Y0035433
Y0043307
Y0051181
Y0059055
Y0066929
Y0074803
Y0082677
Y0090551
Y0098425
Y0106299
Y0114173
X0137795Y0108268
Y0102362
Y0094488
X013189Y0098425
X0125984Y0102362
Y0108268
X013189Y0112205
X0125984Y0094488
X0106791Y0070276
X0103937
X0100709Y0068602
X0100315Y0064567
X0103248Y0062795
X0106102
X0106102Y0053536
X0103248Y0053543
X0100512Y0055709
X0101201Y0047933
X0100098Y0044882
X0102953
X0090551Y0047244
X0082677
Y0055118
X0090551
Y0062992
X0082677
Y0070866
X0090551
Y007874
X0082677
X0074803
Y0070866
Y0062992
X0066929
Y0070866
X0059055
Y0062992
Y0055118
X0066929
X0074803
Y0047244
X0066929
X0059055
X005126Y0043898
X0052461Y0040748
X0049606
X0049587Y0052461
X0046752Y0050197
X0043898
X0043799Y0073425
X0046654
X0049685Y0071457
X0049016Y0086713
X005187
X0055197Y0085039
X0059055Y007874
X0066929
X0073917Y008811
X0071457Y009065
Y0093504
X0081201Y0088504
X0084252Y0088484
Y0091338
X0084153Y0036988
X008691Y0036417
Y0033563
X0077756Y0033563
Y0030709
X0076476Y0036595
X0068996Y0036496
X0066339Y0035925
Y0033071
X0066929Y0003937
X0059055
X0051181
X0043307
X0035433
X0027559
X0019685
X0011811
X0003937
Y0011811
Y0019685
Y0027559
Y0035433
Y0043307
Y0051181
Y0059055
Y0066929
Y0074803
Y0082677
Y0090551
Y0098425
Y0106299
Y0114173
X0009843Y0110236
X001378
X0074803Y0003937
X0082677
X0090551
X0098425
X0106299
X0114173
Y0122047
X0106299
X0098425
X0090551
X0082677
X0074803
X0066929
X0059055
X0051181
X0043307
X0035433
X0027559
X0019685
X0011811
X0009843Y0116142
X001378
X0003937Y0122047
X0122047
X0129921
X0137795
Y0116142
X0125984
X0145669Y0122047
M30
