G04*
G04 #@! TF.GenerationSoftware,Altium Limited,Altium Designer,21.6.1 (37)*
G04*
G04 Layer_Physical_Order=3*
G04 Layer_Color=16440176*
%FSLAX25Y25*%
%MOIN*%
G70*
G04*
G04 #@! TF.SameCoordinates,378A9775-3A77-4BA1-8480-AFC072C74D39*
G04*
G04*
G04 #@! TF.FilePolarity,Positive*
G04*
G01*
G75*
%ADD37C,0.01772*%
G36*
X148803Y803D02*
X803D01*
Y125181D01*
X148803D01*
Y803D01*
D02*
G37*
%LPC*%
G36*
X13999Y117244D02*
X13560D01*
X13155Y117076D01*
X12845Y116766D01*
X12677Y116361D01*
Y115922D01*
X12845Y115517D01*
X13155Y115207D01*
X13560Y115039D01*
X13999D01*
X14404Y115207D01*
X14714Y115517D01*
X14882Y115922D01*
Y116361D01*
X14714Y116766D01*
X14404Y117076D01*
X13999Y117244D01*
D02*
G37*
G36*
X10062D02*
X9623D01*
X9218Y117076D01*
X8908Y116766D01*
X8740Y116361D01*
Y115922D01*
X8908Y115517D01*
X9218Y115207D01*
X9623Y115039D01*
X10062D01*
X10467Y115207D01*
X10777Y115517D01*
X10945Y115922D01*
Y116361D01*
X10777Y116766D01*
X10467Y117076D01*
X10062Y117244D01*
D02*
G37*
G36*
X138015Y103465D02*
X137576D01*
X137171Y103297D01*
X136861Y102987D01*
X136693Y102582D01*
Y102143D01*
X136861Y101738D01*
X137171Y101428D01*
X137576Y101260D01*
X138015D01*
X138420Y101428D01*
X138730Y101738D01*
X138898Y102143D01*
Y102582D01*
X138730Y102987D01*
X138420Y103297D01*
X138015Y103465D01*
D02*
G37*
G36*
X126204D02*
X125765D01*
X125360Y103297D01*
X125050Y102987D01*
X124882Y102582D01*
Y102143D01*
X125050Y101738D01*
X125360Y101428D01*
X125765Y101260D01*
X126204D01*
X126609Y101428D01*
X126919Y101738D01*
X127087Y102143D01*
Y102582D01*
X126919Y102987D01*
X126609Y103297D01*
X126204Y103465D01*
D02*
G37*
G36*
X132109Y99528D02*
X131670D01*
X131265Y99360D01*
X130955Y99050D01*
X130787Y98645D01*
Y98206D01*
X130955Y97801D01*
X131265Y97491D01*
X131670Y97323D01*
X132109D01*
X132514Y97491D01*
X132824Y97801D01*
X132992Y98206D01*
Y98645D01*
X132824Y99050D01*
X132514Y99360D01*
X132109Y99528D01*
D02*
G37*
G36*
X138015Y95591D02*
X137576D01*
X137171Y95423D01*
X136861Y95113D01*
X136693Y94708D01*
Y94269D01*
X136861Y93864D01*
X137171Y93554D01*
X137576Y93386D01*
X138015D01*
X138420Y93554D01*
X138730Y93864D01*
X138898Y94269D01*
Y94708D01*
X138730Y95113D01*
X138420Y95423D01*
X138015Y95591D01*
D02*
G37*
G36*
X126204D02*
X125765D01*
X125360Y95423D01*
X125050Y95113D01*
X124882Y94708D01*
Y94269D01*
X125050Y93864D01*
X125360Y93554D01*
X125765Y93386D01*
X126204D01*
X126609Y93554D01*
X126919Y93864D01*
X127087Y94269D01*
Y94708D01*
X126919Y95113D01*
X126609Y95423D01*
X126204Y95591D01*
D02*
G37*
G36*
X71676Y91752D02*
X71237D01*
X70832Y91584D01*
X70522Y91274D01*
X70354Y90869D01*
Y90430D01*
X70522Y90025D01*
X70832Y89715D01*
X71237Y89547D01*
X71676D01*
X72081Y89715D01*
X72391Y90025D01*
X72559Y90430D01*
Y90869D01*
X72391Y91274D01*
X72081Y91584D01*
X71676Y91752D01*
D02*
G37*
G36*
X84471Y89587D02*
X84033D01*
X83627Y89419D01*
X83317Y89109D01*
X83150Y88704D01*
Y88265D01*
X83317Y87860D01*
X83627Y87550D01*
X84033Y87382D01*
X84471D01*
X84876Y87550D01*
X85186Y87860D01*
X85354Y88265D01*
Y88704D01*
X85186Y89109D01*
X84876Y89419D01*
X84471Y89587D01*
D02*
G37*
G36*
X52089Y87815D02*
X51651D01*
X51246Y87647D01*
X50936Y87337D01*
X50768Y86932D01*
Y86493D01*
X50936Y86088D01*
X51246Y85778D01*
X51651Y85610D01*
X52089D01*
X52495Y85778D01*
X52805Y86088D01*
X52972Y86493D01*
Y86932D01*
X52805Y87337D01*
X52495Y87647D01*
X52089Y87815D01*
D02*
G37*
G36*
X46873Y74528D02*
X46434D01*
X46029Y74360D01*
X45719Y74050D01*
X45551Y73645D01*
Y73206D01*
X45719Y72801D01*
X46029Y72491D01*
X46434Y72323D01*
X46873D01*
X47278Y72491D01*
X47588Y72801D01*
X47756Y73206D01*
Y73645D01*
X47588Y74050D01*
X47278Y74360D01*
X46873Y74528D01*
D02*
G37*
G36*
X104156Y71378D02*
X103718D01*
X103313Y71210D01*
X103003Y70900D01*
X102835Y70495D01*
Y70056D01*
X103003Y69651D01*
X103313Y69341D01*
X103718Y69173D01*
X104156D01*
X104561Y69341D01*
X104872Y69651D01*
X105039Y70056D01*
Y70495D01*
X104872Y70900D01*
X104561Y71210D01*
X104156Y71378D01*
D02*
G37*
G36*
X103467Y63898D02*
X103029D01*
X102624Y63730D01*
X102313Y63420D01*
X102146Y63015D01*
Y62576D01*
X102313Y62171D01*
X102624Y61861D01*
X103029Y61693D01*
X103467D01*
X103873Y61861D01*
X104183Y62171D01*
X104350Y62576D01*
Y63015D01*
X104183Y63420D01*
X103873Y63730D01*
X103467Y63898D01*
D02*
G37*
G36*
Y54646D02*
X103029D01*
X102624Y54478D01*
X102313Y54168D01*
X102146Y53763D01*
Y53324D01*
X102313Y52919D01*
X102624Y52609D01*
X103029Y52441D01*
X103467D01*
X103873Y52609D01*
X104183Y52919D01*
X104350Y53324D01*
Y53763D01*
X104183Y54168D01*
X103873Y54478D01*
X103467Y54646D01*
D02*
G37*
G36*
X46971Y51299D02*
X46533D01*
X46128Y51131D01*
X45817Y50821D01*
X45650Y50416D01*
Y49978D01*
X45817Y49572D01*
X46128Y49262D01*
X46533Y49095D01*
X46971D01*
X47376Y49262D01*
X47686Y49572D01*
X47854Y49978D01*
Y50416D01*
X47686Y50821D01*
X47376Y51131D01*
X46971Y51299D01*
D02*
G37*
G36*
X100318Y45984D02*
X99879D01*
X99474Y45816D01*
X99164Y45506D01*
X98996Y45101D01*
Y44663D01*
X99164Y44258D01*
X99474Y43947D01*
X99879Y43780D01*
X100318D01*
X100723Y43947D01*
X101033Y44258D01*
X101201Y44663D01*
Y45101D01*
X101033Y45506D01*
X100723Y45816D01*
X100318Y45984D01*
D02*
G37*
G36*
X52680Y41850D02*
X52241D01*
X51836Y41683D01*
X51526Y41372D01*
X51358Y40967D01*
Y40529D01*
X51526Y40124D01*
X51836Y39814D01*
X52241Y39646D01*
X52680D01*
X53085Y39814D01*
X53395Y40124D01*
X53563Y40529D01*
Y40967D01*
X53395Y41372D01*
X53085Y41683D01*
X52680Y41850D01*
D02*
G37*
G36*
X87129Y37520D02*
X86690D01*
X86285Y37352D01*
X85975Y37042D01*
X85807Y36637D01*
Y36198D01*
X85975Y35793D01*
X86285Y35483D01*
X86690Y35315D01*
X87129D01*
X87534Y35483D01*
X87844Y35793D01*
X88012Y36198D01*
Y36637D01*
X87844Y37042D01*
X87534Y37352D01*
X87129Y37520D01*
D02*
G37*
G36*
X66558Y37028D02*
X66119D01*
X65714Y36860D01*
X65404Y36550D01*
X65236Y36145D01*
Y35706D01*
X65404Y35301D01*
X65714Y34991D01*
X66119Y34823D01*
X66558D01*
X66963Y34991D01*
X67273Y35301D01*
X67441Y35706D01*
Y36145D01*
X67273Y36550D01*
X66963Y36860D01*
X66558Y37028D01*
D02*
G37*
G36*
X77975Y34665D02*
X77537D01*
X77131Y34497D01*
X76821Y34187D01*
X76653Y33782D01*
Y33344D01*
X76821Y32939D01*
X77131Y32628D01*
X77537Y32461D01*
X77975D01*
X78380Y32628D01*
X78690Y32939D01*
X78858Y33344D01*
Y33782D01*
X78690Y34187D01*
X78380Y34497D01*
X77975Y34665D01*
D02*
G37*
%LPD*%
D37*
X131890Y112205D02*
D03*
X137795Y108268D02*
D03*
X125984D02*
D03*
Y116142D02*
D03*
X137795D02*
D03*
X13780Y110236D02*
D03*
X9843D02*
D03*
X11811Y122047D02*
D03*
X19685D02*
D03*
X27559D02*
D03*
X35433D02*
D03*
X43307D02*
D03*
X11811Y3937D02*
D03*
X19685D02*
D03*
X27559D02*
D03*
X35433D02*
D03*
X51181Y122047D02*
D03*
X59055D02*
D03*
X66929D02*
D03*
X74803D02*
D03*
X82677D02*
D03*
X122047D02*
D03*
X114173D02*
D03*
X106299D02*
D03*
X98425D02*
D03*
X90551D02*
D03*
X137795D02*
D03*
X129921D02*
D03*
X145669Y114173D02*
D03*
Y106299D02*
D03*
Y98425D02*
D03*
Y90551D02*
D03*
Y82677D02*
D03*
Y74803D02*
D03*
Y27559D02*
D03*
Y35433D02*
D03*
Y43307D02*
D03*
Y51181D02*
D03*
Y59055D02*
D03*
Y66929D02*
D03*
X122047Y3937D02*
D03*
X129921D02*
D03*
X137795D02*
D03*
X145669Y11811D02*
D03*
Y19685D02*
D03*
X82677Y3937D02*
D03*
X90551D02*
D03*
X98425D02*
D03*
X106299D02*
D03*
X114173D02*
D03*
X74803D02*
D03*
X66929D02*
D03*
X59055D02*
D03*
X51181D02*
D03*
X43307D02*
D03*
X3937Y43307D02*
D03*
Y35433D02*
D03*
Y27559D02*
D03*
Y19685D02*
D03*
Y11811D02*
D03*
Y74803D02*
D03*
Y66929D02*
D03*
Y59055D02*
D03*
Y51181D02*
D03*
Y82677D02*
D03*
Y90551D02*
D03*
Y98425D02*
D03*
Y106299D02*
D03*
Y114173D02*
D03*
X82677Y55118D02*
D03*
Y62992D02*
D03*
Y70866D02*
D03*
X74803D02*
D03*
X66929D02*
D03*
Y62992D02*
D03*
Y55118D02*
D03*
X74803D02*
D03*
X66929Y47244D02*
D03*
X74803D02*
D03*
X82677D02*
D03*
X90551D02*
D03*
Y55118D02*
D03*
Y62992D02*
D03*
Y70866D02*
D03*
Y78740D02*
D03*
X82677D02*
D03*
X74803D02*
D03*
X66929D02*
D03*
X59055D02*
D03*
Y70866D02*
D03*
Y62992D02*
D03*
Y55118D02*
D03*
Y47244D02*
D03*
X100315Y64567D02*
D03*
X106102Y53536D02*
D03*
X101201Y47933D02*
D03*
X100512Y55709D02*
D03*
X106791Y70276D02*
D03*
X84252Y91338D02*
D03*
X81201Y88504D02*
D03*
X73917Y88110D02*
D03*
X71457Y93504D02*
D03*
X49016Y86713D02*
D03*
X55197Y85039D02*
D03*
X49685Y71457D02*
D03*
X43799Y73425D02*
D03*
X43898Y50197D02*
D03*
X49587Y52461D02*
D03*
X51260Y43898D02*
D03*
X49606Y40748D02*
D03*
X68996Y36496D02*
D03*
X66339Y33071D02*
D03*
X76476Y36595D02*
D03*
X77756Y30709D02*
D03*
X86910Y33563D02*
D03*
X84153Y36988D02*
D03*
X102953Y44882D02*
D03*
X106102Y62795D02*
D03*
X100709Y68602D02*
D03*
X145669Y3937D02*
D03*
Y122047D02*
D03*
X3937D02*
D03*
Y3937D02*
D03*
X74803Y62992D02*
D03*
M02*
