G04*
G04 #@! TF.GenerationSoftware,Altium Limited,Altium Designer,21.6.1 (37)*
G04*
G04 Layer_Color=8421504*
%FSLAX25Y25*%
%MOIN*%
G70*
G04*
G04 #@! TF.SameCoordinates,378A9775-3A77-4BA1-8480-AFC072C74D39*
G04*
G04*
G04 #@! TF.FilePolarity,Positive*
G04*
G01*
G75*
%ADD13R,0.01654X0.01890*%
G04:AMPARAMS|DCode=14|XSize=19.68mil|YSize=23.62mil|CornerRadius=1.97mil|HoleSize=0mil|Usage=FLASHONLY|Rotation=90.000|XOffset=0mil|YOffset=0mil|HoleType=Round|Shape=RoundedRectangle|*
%AMROUNDEDRECTD14*
21,1,0.01968,0.01968,0,0,90.0*
21,1,0.01575,0.02362,0,0,90.0*
1,1,0.00394,0.00984,0.00787*
1,1,0.00394,0.00984,-0.00787*
1,1,0.00394,-0.00984,-0.00787*
1,1,0.00394,-0.00984,0.00787*
%
%ADD14ROUNDEDRECTD14*%
%ADD15R,0.01890X0.01654*%
%ADD16R,0.28268X0.28268*%
%ADD17O,0.01181X0.03150*%
%ADD18O,0.03150X0.01181*%
%ADD19R,0.07874X0.03937*%
%ADD20R,0.03937X0.07874*%
G04:AMPARAMS|DCode=21|XSize=19.68mil|YSize=23.62mil|CornerRadius=1.97mil|HoleSize=0mil|Usage=FLASHONLY|Rotation=180.000|XOffset=0mil|YOffset=0mil|HoleType=Round|Shape=RoundedRectangle|*
%AMROUNDEDRECTD21*
21,1,0.01968,0.01968,0,0,180.0*
21,1,0.01575,0.02362,0,0,180.0*
1,1,0.00394,-0.00787,0.00984*
1,1,0.00394,0.00787,0.00984*
1,1,0.00394,0.00787,-0.00984*
1,1,0.00394,-0.00787,-0.00984*
%
%ADD21ROUNDEDRECTD21*%
%ADD22R,0.15748X0.11811*%
D13*
X73917Y88110D02*
D03*
Y85512D02*
D03*
X68996Y36496D02*
D03*
Y39094D02*
D03*
X81201Y88504D02*
D03*
Y85905D02*
D03*
X76476Y36595D02*
D03*
Y39193D02*
D03*
X84153Y36988D02*
D03*
Y39587D02*
D03*
D14*
X103248Y53543D02*
D03*
X107185D02*
D03*
X103937Y70276D02*
D03*
X107874D02*
D03*
X51870Y86713D02*
D03*
X47933D02*
D03*
X100098Y44882D02*
D03*
X104035D02*
D03*
X103248Y62795D02*
D03*
X107185D02*
D03*
X46752Y50197D02*
D03*
X42815D02*
D03*
X46654Y73425D02*
D03*
X42717D02*
D03*
X52461Y40748D02*
D03*
X48524D02*
D03*
D15*
X100512Y55709D02*
D03*
X97913D02*
D03*
X100709Y68504D02*
D03*
X98110D02*
D03*
X55197Y85039D02*
D03*
X57795D02*
D03*
X101201Y47933D02*
D03*
X98602D02*
D03*
X100315Y64567D02*
D03*
X97716D02*
D03*
X49587Y52461D02*
D03*
X52185D02*
D03*
X49685Y71457D02*
D03*
X52284D02*
D03*
X51260Y43898D02*
D03*
X53858D02*
D03*
D16*
X74803Y62992D02*
D03*
D17*
X58071Y82185D02*
D03*
X60039D02*
D03*
X62008D02*
D03*
X63976D02*
D03*
X65945D02*
D03*
X67913D02*
D03*
X69882D02*
D03*
X71850D02*
D03*
X73819D02*
D03*
X75787D02*
D03*
X77756D02*
D03*
X79724D02*
D03*
X81693D02*
D03*
X83661D02*
D03*
X85630D02*
D03*
X87598D02*
D03*
X89567D02*
D03*
X91535D02*
D03*
Y43799D02*
D03*
X89567D02*
D03*
X87598D02*
D03*
X85630D02*
D03*
X83661D02*
D03*
X81693D02*
D03*
X79724D02*
D03*
X77756D02*
D03*
X75787D02*
D03*
X73819D02*
D03*
X71850D02*
D03*
X69882D02*
D03*
X67913D02*
D03*
X65945D02*
D03*
X63976D02*
D03*
X62008D02*
D03*
X60039D02*
D03*
X58071D02*
D03*
D18*
X93996Y79724D02*
D03*
Y77756D02*
D03*
Y75787D02*
D03*
Y73819D02*
D03*
Y71850D02*
D03*
Y69882D02*
D03*
Y67913D02*
D03*
Y65945D02*
D03*
Y63976D02*
D03*
Y62008D02*
D03*
Y60039D02*
D03*
Y58071D02*
D03*
Y56102D02*
D03*
Y54134D02*
D03*
Y52165D02*
D03*
Y50197D02*
D03*
Y48228D02*
D03*
Y46260D02*
D03*
X55610D02*
D03*
Y48228D02*
D03*
Y50197D02*
D03*
Y52165D02*
D03*
Y54134D02*
D03*
Y56102D02*
D03*
Y58071D02*
D03*
Y60039D02*
D03*
Y62008D02*
D03*
Y63976D02*
D03*
Y65945D02*
D03*
Y67913D02*
D03*
Y69882D02*
D03*
Y71850D02*
D03*
Y73819D02*
D03*
Y75787D02*
D03*
Y77756D02*
D03*
Y79724D02*
D03*
D19*
X11811Y92520D02*
D03*
Y98425D02*
D03*
Y116142D02*
D03*
Y110236D02*
D03*
Y104331D02*
D03*
X137795Y15748D02*
D03*
Y9843D02*
D03*
Y45276D02*
D03*
Y33465D02*
D03*
Y39370D02*
D03*
Y21654D02*
D03*
Y27559D02*
D03*
Y86614D02*
D03*
Y80709D02*
D03*
Y68898D02*
D03*
Y74803D02*
D03*
Y57087D02*
D03*
Y62992D02*
D03*
Y51181D02*
D03*
X11811Y21654D02*
D03*
Y15748D02*
D03*
Y33465D02*
D03*
Y9843D02*
D03*
Y27559D02*
D03*
Y45276D02*
D03*
Y39370D02*
D03*
Y80709D02*
D03*
Y74803D02*
D03*
Y51181D02*
D03*
Y68898D02*
D03*
Y57087D02*
D03*
Y62992D02*
D03*
Y86614D02*
D03*
D20*
X62992Y114173D02*
D03*
X86614D02*
D03*
X110236D02*
D03*
X92520D02*
D03*
X98425D02*
D03*
X104331D02*
D03*
X51181D02*
D03*
X45276D02*
D03*
X57087D02*
D03*
X39370D02*
D03*
X80709D02*
D03*
X68898D02*
D03*
X74803D02*
D03*
X116142Y11811D02*
D03*
X104331D02*
D03*
X110236D02*
D03*
X33465D02*
D03*
X86614D02*
D03*
X98425D02*
D03*
X92520D02*
D03*
X68898D02*
D03*
X51181D02*
D03*
X80709D02*
D03*
X74803D02*
D03*
X57087D02*
D03*
X45276D02*
D03*
X62992D02*
D03*
X39370D02*
D03*
D21*
X84252Y88484D02*
D03*
Y92421D02*
D03*
X71457Y90650D02*
D03*
Y94587D02*
D03*
X66339Y35925D02*
D03*
Y31988D02*
D03*
X77756Y33563D02*
D03*
Y29626D02*
D03*
X86910Y36417D02*
D03*
Y32480D02*
D03*
D22*
X131890Y98425D02*
D03*
Y112205D02*
D03*
M02*
